<svg width="28" height="20" viewBox="0 0 28 20" fill="none" xmlns="http://www.w3.org/2000/svg">
<path d="M23.8002 4.08105L14.0002 11.2936L4.2002 4.08105M3.04395 1.69355C2.71242 1.69355 2.39448 1.82525 2.16006 2.05967C1.92564 2.29409 1.79395 2.61203 1.79395 2.94355V17.0748C1.79395 17.4063 1.92564 17.7243 2.16006 17.9587C2.39448 18.1931 2.71242 18.3248 3.04395 18.3248H24.9564C25.288 18.3248 25.6059 18.1931 25.8403 17.9587C26.0747 17.7243 26.2064 17.4063 26.2064 17.0748V2.9248C26.2064 2.59328 26.0747 2.27534 25.8403 2.04092C25.6059 1.8065 25.288 1.6748 24.9564 1.6748H3.04395V1.69355Z" stroke="white" stroke-width="2" stroke-linecap="round" stroke-linejoin="round"/>
</svg>
