<svg width="26" height="22" viewBox="0 0 26 22" fill="none" xmlns="http://www.w3.org/2000/svg">
<path d="M23.5192 1.2998C24.2317 1.2998 24.7692 1.92481 24.4817 3.08731L20.9942 19.5248C20.7505 20.6936 20.0442 20.9748 19.0692 20.4311L10.7505 14.2873C10.7182 14.2642 10.6919 14.2337 10.6738 14.1983C10.6557 14.163 10.6462 14.1239 10.6462 14.0842C10.6462 14.0445 10.6557 14.0053 10.6738 13.97C10.6919 13.9347 10.7182 13.9042 10.7505 13.8811L20.3567 5.20605C20.7942 4.81855 20.263 4.63105 19.688 4.98105L7.63173 12.5873C7.59517 12.6112 7.55366 12.6264 7.51034 12.6318C7.46702 12.6372 7.42304 12.6327 7.38173 12.6186L2.26298 10.9998C1.12548 10.6686 1.12548 9.8873 2.51923 9.33105L23.0005 1.43105C23.1629 1.35313 23.3393 1.3085 23.5192 1.2998V1.2998Z" stroke="white" stroke-width="2" stroke-linecap="round" stroke-linejoin="round"/>
</svg>
