<svg width="30" height="30" viewBox="0 0 30 30" fill="none" xmlns="http://www.w3.org/2000/svg">
<path d="M15 1.5625C12.6658 1.56501 10.3724 2.17495 8.34535 3.33236C6.31829 4.48976 4.62734 6.15478 3.43875 8.16372C2.25016 10.1727 1.60486 12.4563 1.56628 14.7902C1.52771 17.1241 2.0972 19.4279 3.21875 21.475L1.5625 28.4375L8.525 26.7812C10.3208 27.7664 12.318 28.3279 14.364 28.423C16.4101 28.5181 18.4507 28.1442 20.3301 27.3299C22.2096 26.5156 23.8779 25.2824 25.2078 23.7246C26.5377 22.1668 27.4938 20.3256 28.0032 18.3417C28.5126 16.3578 28.5617 14.2838 28.1468 12.278C27.7319 10.2722 26.8639 8.38783 25.6093 6.76884C24.3546 5.14985 22.7465 3.8391 20.9077 2.93676C19.0689 2.03441 17.0482 1.56435 15 1.5625V1.5625ZM8.28125 7.66875H11.9437C12.1095 7.66875 12.2685 7.7346 12.3857 7.85181C12.5029 7.96902 12.5687 8.12799 12.5687 8.29375C12.5482 9.12725 12.6883 9.95691 12.9812 10.7375C13.1074 10.9988 13.1351 11.2968 13.0594 11.5769C12.9836 11.857 12.8094 12.1004 12.5687 12.2625L11.2875 13.5125C11.8556 14.6219 12.5984 15.6327 13.4875 16.5062C14.354 17.4098 15.3607 18.1675 16.4687 18.75L17.7187 17.4688C18.3437 16.8438 18.6312 16.8438 19.2437 17.0563C20.0243 17.3492 20.854 17.4893 21.6875 17.4688C21.8508 17.4764 22.0054 17.5446 22.121 17.6603C22.2366 17.7759 22.3049 17.9304 22.3125 18.0938V21.7563C22.3049 21.9196 22.2366 22.0741 22.121 22.1898C22.0054 22.3054 21.8508 22.3736 21.6875 22.3813C18.011 22.2211 14.526 20.697 11.9125 18.1062C9.31773 15.4955 7.7929 12.0089 7.6375 8.33125C7.63899 8.15922 7.70672 7.99438 7.82661 7.87099C7.9465 7.74761 8.10933 7.67518 8.28125 7.66875V7.66875Z" stroke="white" stroke-width="2" stroke-linecap="round" stroke-linejoin="round"/>
</svg>
