<svg width="93" height="93" viewBox="0 0 93 93" fill="none" xmlns="http://www.w3.org/2000/svg">
<mask id="path-1-inside-1_1440_6" fill="white">
<path d="M86.8842 72.8079C90.2565 72.8079 93 70.0643 93 66.6921V38.7338C93 35.3615 90.2563 32.618 86.8842 32.618H48.5774V31.8996C48.5774 30.9563 48.2437 30.0903 47.6892 29.4111C48.1006 28.9076 48.3876 28.3045 48.5104 27.651C50.0691 26.7321 51.0626 25.049 51.0626 23.2013C51.0626 22.3287 50.8379 21.4759 50.4169 20.7161C50.8378 19.9563 51.0626 19.1037 51.0626 18.2309C51.0626 16.3909 50.0769 14.7227 48.5484 13.8033C48.5678 13.6231 48.5774 13.4422 48.5774 13.2605C48.5774 10.6433 46.6277 8.47265 44.1043 8.12518C43.1831 6.57705 41.506 5.59147 39.6656 5.59147C39.4293 5.59147 39.1906 5.60963 38.9516 5.64596C37.9237 4.81369 36.6396 4.34887 35.3166 4.34887C35.1398 4.34887 34.9627 4.35777 34.7833 4.37575C33.6782 3.55274 32.348 3.10645 30.9677 3.10645C29.5874 3.10645 28.2573 3.55274 27.152 4.37575C26.9724 4.35795 26.7953 4.34887 26.6187 4.34887C25.2922 4.34887 24.0287 4.79516 23.0026 5.6169C21.3658 5.7802 19.9091 6.72128 19.0737 8.12536C16.5504 8.47265 14.6006 10.6433 14.6006 13.2605C14.6006 13.442 14.6103 13.6231 14.6297 13.8033C13.1014 14.7227 12.1154 16.3909 12.1154 18.2309C12.1154 19.1037 12.3401 19.9563 12.7612 20.7161C12.3401 21.4759 12.1154 22.3287 12.1154 23.2013C12.1154 25.049 13.109 26.7321 14.6678 27.651C14.7363 28.0157 14.8575 28.3641 15.0213 28.6889C14.0165 29.404 13.358 30.575 13.358 31.8994V34.3846C13.358 36.5577 15.1259 38.326 17.2995 38.326H17.9466L18.0525 38.9876C18.2979 40.5217 19.0904 41.9145 20.2842 42.9094L20.8138 43.3507V47.4604C20.8138 47.9148 20.5218 48.3103 20.0873 48.4438L9.1961 51.7948C6.48275 52.6299 4.65963 55.0982 4.65963 57.9372V76.0117C4.65963 77.8076 5.28193 79.4602 6.31982 80.7685H3.00942C1.34995 80.7683 0 82.1183 0 83.7778V86.8842C0 88.5437 1.34995 89.8936 3.00942 89.8936H89.9906C91.65 89.8936 93 88.5437 93 86.8842V83.7778C93 82.1183 91.65 80.7683 89.9906 80.7683H74.1799L73.1183 72.8079H86.8842ZM90.0878 38.7338V66.6921C90.0878 68.4586 88.6506 69.8957 86.8842 69.8957H72.9051C72.8462 69.8957 72.7888 69.9002 72.7316 69.907L71.6013 61.4294C71.3003 59.1722 69.356 57.4698 67.0788 57.4698H60.0925C57.8153 57.4698 55.8708 59.1722 55.5699 61.4294L54.4395 69.907C54.3827 69.9002 54.3249 69.8957 54.266 69.8957H40.287C38.5205 69.8957 37.0834 68.4586 37.0834 66.6921V38.7338C37.0834 36.9673 38.5205 35.5302 40.287 35.5302H86.8842C88.6506 35.5304 90.0878 36.9673 90.0878 38.7338ZM49.5045 80.7683C49.5067 80.7362 49.5094 80.7041 49.5094 80.6714V72.8081H54.0526L52.9911 80.7685L49.5045 80.7683ZM44.9023 32.618L45.1584 31.0179C45.4603 31.1975 45.6652 31.5234 45.6652 31.8996V32.618H44.9023ZM15.6207 19.7416C15.3501 19.4412 15.0277 18.9353 15.0277 18.2311C15.0277 17.2165 15.7194 16.3206 16.71 16.0525C17.1115 15.9437 17.4475 15.6687 17.6328 15.2963C17.8184 14.9242 17.8358 14.4902 17.6809 14.1042C17.5692 13.8269 17.5127 13.543 17.5127 13.2609C17.5127 12.0261 18.503 11.0182 19.7313 10.9898C19.7932 10.9982 19.8555 11.0051 19.9189 11.0089C20.571 11.0463 21.1664 10.6498 21.3807 10.0344C21.6944 9.13383 22.5282 8.52424 23.4651 8.50444C23.4932 8.50644 23.5216 8.50771 23.5501 8.50807C23.9437 8.5128 24.3168 8.36494 24.5954 8.09157C25.1414 7.5561 25.86 7.26111 26.6185 7.26111C26.8149 7.26111 27.023 7.28654 27.2548 7.33849C27.7254 7.44439 28.219 7.31015 28.5712 6.97957C29.2314 6.35999 30.0824 6.01869 30.9677 6.01869C31.853 6.01869 32.704 6.35999 33.3641 6.97975C33.7161 7.31034 34.2095 7.44475 34.6805 7.33867C34.9122 7.28636 35.1204 7.26129 35.3167 7.26129C36.13 7.26129 36.8872 7.60241 37.449 8.22163C37.8381 8.65048 38.4442 8.80796 38.9928 8.62305C39.2307 8.54295 39.4511 8.5039 39.666 8.5039C40.6217 8.5039 41.4784 9.11893 41.7973 10.0342C42.0117 10.6494 42.6074 11.0476 43.2592 11.0087C43.3186 11.0053 43.3771 10.9987 43.4464 10.9896C44.6747 11.0178 45.6652 12.0259 45.6652 13.2607C45.6652 13.5428 45.6087 13.8267 45.4972 14.1039C45.342 14.4899 45.3595 14.9238 45.5451 15.2962C45.7308 15.6685 46.0666 15.9437 46.4682 16.0523C47.4585 16.3204 48.1504 17.2163 48.1504 18.2309C48.1504 18.9352 47.8276 19.441 47.5573 19.7415C47.0584 20.2955 47.0584 21.1368 47.5573 21.6908C47.828 21.9913 48.1504 22.4971 48.1504 23.2013C48.1504 24.1571 47.5354 25.0138 46.6199 25.3325C45.9889 25.5525 45.5883 26.1739 45.6488 26.8394C45.6528 26.8841 45.6583 26.9284 45.6645 26.9726C45.6452 27.4147 45.3357 27.7981 44.8985 27.9144C44.8518 27.9267 43.4592 27.9582 43.4592 27.9582L42.6218 22.934C42.4979 22.1909 41.8262 21.665 41.0768 21.7213C41.0092 21.7264 40.9431 21.7346 40.8766 21.7437L40.868 21.7448C40.1219 21.7315 39.4316 21.3524 39.0155 20.7247C38.7456 20.318 38.2902 20.0733 37.802 20.0733C37.3139 20.0733 36.8582 20.318 36.5884 20.7245C36.1646 21.3635 35.4572 21.745 34.6954 21.745C33.9337 21.745 33.2262 21.3635 32.8023 20.7245C32.5324 20.3178 32.077 20.0731 31.5888 20.0731C31.1007 20.0731 30.645 20.3178 30.3752 20.7243C29.9515 21.3633 29.244 21.7448 28.4822 21.7448C27.7205 21.7448 27.013 21.3633 26.5891 20.7243C26.3192 20.3176 25.8638 20.073 25.3756 20.073C24.8875 20.073 24.4318 20.3176 24.162 20.7241C23.7457 21.3519 23.0555 21.731 22.3095 21.7442L22.3009 21.7431C22.2346 21.7341 22.1681 21.7259 22.1006 21.7208C21.3513 21.6636 20.6796 22.1905 20.5557 22.9334L19.7185 27.9582C19.7185 27.9582 18.3261 27.9269 18.2794 27.9144C17.842 27.7981 17.5323 27.4143 17.5134 26.9722C17.5192 26.9281 17.5247 26.8841 17.5287 26.8394C17.5892 26.1739 17.1887 25.5525 16.5576 25.3325C15.6422 25.0136 15.0271 24.1571 15.0271 23.2013C15.0271 22.4971 15.3499 21.9913 15.6202 21.6908C16.1197 21.137 16.1197 20.2956 15.6207 19.7416ZM17.2991 35.4138C16.7318 35.4138 16.2701 34.9522 16.2701 34.3848V31.8996C16.2701 31.5236 16.475 31.1975 16.7769 31.0179L17.4804 35.4138H17.2991ZM19.7026 30.8706H19.8996C21.2242 30.8706 22.3436 29.9221 22.5618 28.6155L23.2364 24.5669C24.016 24.4194 24.7465 24.095 25.3759 23.6224C26.26 24.2863 27.3442 24.6576 28.4823 24.6576C29.6203 24.6576 30.7047 24.2861 31.5888 23.6224C32.4728 24.2863 33.557 24.6576 34.6952 24.6576C35.8332 24.6576 36.9175 24.2861 37.8016 23.6224C38.4308 24.095 39.1615 24.4192 39.9411 24.5669L40.6157 28.6157C40.7747 29.5693 41.4151 30.33 42.264 30.6726L41.9528 32.618H40.2868C36.9145 32.618 34.171 35.3616 34.171 38.7338V45.1966C33.9089 45.2988 33.6288 45.3544 33.3456 45.3544H28.5893C28.0589 45.3544 27.5425 45.1675 27.1351 44.8278L22.1478 40.6717C21.495 40.1277 21.0618 39.3663 20.9275 38.5273L19.7026 30.8706ZM20.9435 51.2274C22.6079 50.7154 23.7259 49.2014 23.7259 47.4604V45.7776L25.2709 47.0653C26.2008 47.8402 27.3792 48.2668 28.5897 48.2668H33.346C33.623 48.2668 33.899 48.2432 34.1713 48.1989V57.5687C33.3169 57.7083 32.4483 57.7805 31.5764 57.7805C26.7188 57.7805 22.1378 55.5579 19.1217 51.7881L20.9435 51.2274ZM7.57205 76.0115V57.937C7.57205 56.3845 8.56908 55.0348 10.0527 54.5781L16.1644 52.6978C19.6982 57.7054 25.4511 60.6925 31.5764 60.6925C32.4463 60.6925 33.3136 60.6313 34.1713 60.5131V66.6921C34.1713 70.0645 36.915 72.8079 40.2872 72.8079H46.5972V80.6712C46.5972 80.704 46.5999 80.736 46.6021 80.7682H38.6368V79.1178C38.6368 75.7454 35.8931 73.0019 32.5209 73.0019H16.9885C16.9349 73.0019 16.8915 72.9585 16.8915 72.9049V63.5855C16.8915 62.7814 16.2396 62.1293 15.4353 62.1293C14.6312 62.1293 13.9791 62.7812 13.9791 63.5855V72.9049C13.9791 74.5644 15.329 75.9144 16.9885 75.9144H26.4049V80.7682H12.3289C9.70597 80.7683 7.57205 78.6343 7.57205 76.0115ZM29.3173 80.7683V75.9145H32.5209C34.2874 75.9145 35.7245 77.3517 35.7245 79.1181V80.7685L29.3173 80.7683ZM90.0878 83.7778V86.8842C90.0878 86.9378 90.0443 86.9812 89.9908 86.9812H3.00942C2.95584 86.9812 2.91243 86.9378 2.91243 86.8842V83.7778C2.91243 83.7242 2.95584 83.6808 3.00942 83.6808H89.9906C90.0442 83.6806 90.0878 83.7242 90.0878 83.7778ZM55.9293 80.7683L58.4565 61.8143C58.5655 60.9977 59.2686 60.3821 60.0925 60.3821H67.0788C67.9025 60.3821 68.6058 60.9977 68.7148 61.8143L71.2422 80.7683H55.9293Z"/>
</mask>
<path d="M86.8842 72.8079C90.2565 72.8079 93 70.0643 93 66.6921V38.7338C93 35.3615 90.2563 32.618 86.8842 32.618H48.5774V31.8996C48.5774 30.9563 48.2437 30.0903 47.6892 29.4111C48.1006 28.9076 48.3876 28.3045 48.5104 27.651C50.0691 26.7321 51.0626 25.049 51.0626 23.2013C51.0626 22.3287 50.8379 21.4759 50.4169 20.7161C50.8378 19.9563 51.0626 19.1037 51.0626 18.2309C51.0626 16.3909 50.0769 14.7227 48.5484 13.8033C48.5678 13.6231 48.5774 13.4422 48.5774 13.2605C48.5774 10.6433 46.6277 8.47265 44.1043 8.12518C43.1831 6.57705 41.506 5.59147 39.6656 5.59147C39.4293 5.59147 39.1906 5.60963 38.9516 5.64596C37.9237 4.81369 36.6396 4.34887 35.3166 4.34887C35.1398 4.34887 34.9627 4.35777 34.7833 4.37575C33.6782 3.55274 32.348 3.10645 30.9677 3.10645C29.5874 3.10645 28.2573 3.55274 27.152 4.37575C26.9724 4.35795 26.7953 4.34887 26.6187 4.34887C25.2922 4.34887 24.0287 4.79516 23.0026 5.6169C21.3658 5.7802 19.9091 6.72128 19.0737 8.12536C16.5504 8.47265 14.6006 10.6433 14.6006 13.2605C14.6006 13.442 14.6103 13.6231 14.6297 13.8033C13.1014 14.7227 12.1154 16.3909 12.1154 18.2309C12.1154 19.1037 12.3401 19.9563 12.7612 20.7161C12.3401 21.4759 12.1154 22.3287 12.1154 23.2013C12.1154 25.049 13.109 26.7321 14.6678 27.651C14.7363 28.0157 14.8575 28.3641 15.0213 28.6889C14.0165 29.404 13.358 30.575 13.358 31.8994V34.3846C13.358 36.5577 15.1259 38.326 17.2995 38.326H17.9466L18.0525 38.9876C18.2979 40.5217 19.0904 41.9145 20.2842 42.9094L20.8138 43.3507V47.4604C20.8138 47.9148 20.5218 48.3103 20.0873 48.4438L9.1961 51.7948C6.48275 52.6299 4.65963 55.0982 4.65963 57.9372V76.0117C4.65963 77.8076 5.28193 79.4602 6.31982 80.7685H3.00942C1.34995 80.7683 0 82.1183 0 83.7778V86.8842C0 88.5437 1.34995 89.8936 3.00942 89.8936H89.9906C91.65 89.8936 93 88.5437 93 86.8842V83.7778C93 82.1183 91.65 80.7683 89.9906 80.7683H74.1799L73.1183 72.8079H86.8842ZM90.0878 38.7338V66.6921C90.0878 68.4586 88.6506 69.8957 86.8842 69.8957H72.9051C72.8462 69.8957 72.7888 69.9002 72.7316 69.907L71.6013 61.4294C71.3003 59.1722 69.356 57.4698 67.0788 57.4698H60.0925C57.8153 57.4698 55.8708 59.1722 55.5699 61.4294L54.4395 69.907C54.3827 69.9002 54.3249 69.8957 54.266 69.8957H40.287C38.5205 69.8957 37.0834 68.4586 37.0834 66.6921V38.7338C37.0834 36.9673 38.5205 35.5302 40.287 35.5302H86.8842C88.6506 35.5304 90.0878 36.9673 90.0878 38.7338ZM49.5045 80.7683C49.5067 80.7362 49.5094 80.7041 49.5094 80.6714V72.8081H54.0526L52.9911 80.7685L49.5045 80.7683ZM44.9023 32.618L45.1584 31.0179C45.4603 31.1975 45.6652 31.5234 45.6652 31.8996V32.618H44.9023ZM15.6207 19.7416C15.3501 19.4412 15.0277 18.9353 15.0277 18.2311C15.0277 17.2165 15.7194 16.3206 16.71 16.0525C17.1115 15.9437 17.4475 15.6687 17.6328 15.2963C17.8184 14.9242 17.8358 14.4902 17.6809 14.1042C17.5692 13.8269 17.5127 13.543 17.5127 13.2609C17.5127 12.0261 18.503 11.0182 19.7313 10.9898C19.7932 10.9982 19.8555 11.0051 19.9189 11.0089C20.571 11.0463 21.1664 10.6498 21.3807 10.0344C21.6944 9.13383 22.5282 8.52424 23.4651 8.50444C23.4932 8.50644 23.5216 8.50771 23.5501 8.50807C23.9437 8.5128 24.3168 8.36494 24.5954 8.09157C25.1414 7.5561 25.86 7.26111 26.6185 7.26111C26.8149 7.26111 27.023 7.28654 27.2548 7.33849C27.7254 7.44439 28.219 7.31015 28.5712 6.97957C29.2314 6.35999 30.0824 6.01869 30.9677 6.01869C31.853 6.01869 32.704 6.35999 33.3641 6.97975C33.7161 7.31034 34.2095 7.44475 34.6805 7.33867C34.9122 7.28636 35.1204 7.26129 35.3167 7.26129C36.13 7.26129 36.8872 7.60241 37.449 8.22163C37.8381 8.65048 38.4442 8.80796 38.9928 8.62305C39.2307 8.54295 39.4511 8.5039 39.666 8.5039C40.6217 8.5039 41.4784 9.11893 41.7973 10.0342C42.0117 10.6494 42.6074 11.0476 43.2592 11.0087C43.3186 11.0053 43.3771 10.9987 43.4464 10.9896C44.6747 11.0178 45.6652 12.0259 45.6652 13.2607C45.6652 13.5428 45.6087 13.8267 45.4972 14.1039C45.342 14.4899 45.3595 14.9238 45.5451 15.2962C45.7308 15.6685 46.0666 15.9437 46.4682 16.0523C47.4585 16.3204 48.1504 17.2163 48.1504 18.2309C48.1504 18.9352 47.8276 19.441 47.5573 19.7415C47.0584 20.2955 47.0584 21.1368 47.5573 21.6908C47.828 21.9913 48.1504 22.4971 48.1504 23.2013C48.1504 24.1571 47.5354 25.0138 46.6199 25.3325C45.9889 25.5525 45.5883 26.1739 45.6488 26.8394C45.6528 26.8841 45.6583 26.9284 45.6645 26.9726C45.6452 27.4147 45.3357 27.7981 44.8985 27.9144C44.8518 27.9267 43.4592 27.9582 43.4592 27.9582L42.6218 22.934C42.4979 22.1909 41.8262 21.665 41.0768 21.7213C41.0092 21.7264 40.9431 21.7346 40.8766 21.7437L40.868 21.7448C40.1219 21.7315 39.4316 21.3524 39.0155 20.7247C38.7456 20.318 38.2902 20.0733 37.802 20.0733C37.3139 20.0733 36.8582 20.318 36.5884 20.7245C36.1646 21.3635 35.4572 21.745 34.6954 21.745C33.9337 21.745 33.2262 21.3635 32.8023 20.7245C32.5324 20.3178 32.077 20.0731 31.5888 20.0731C31.1007 20.0731 30.645 20.3178 30.3752 20.7243C29.9515 21.3633 29.244 21.7448 28.4822 21.7448C27.7205 21.7448 27.013 21.3633 26.5891 20.7243C26.3192 20.3176 25.8638 20.073 25.3756 20.073C24.8875 20.073 24.4318 20.3176 24.162 20.7241C23.7457 21.3519 23.0555 21.731 22.3095 21.7442L22.3009 21.7431C22.2346 21.7341 22.1681 21.7259 22.1006 21.7208C21.3513 21.6636 20.6796 22.1905 20.5557 22.9334L19.7185 27.9582C19.7185 27.9582 18.3261 27.9269 18.2794 27.9144C17.842 27.7981 17.5323 27.4143 17.5134 26.9722C17.5192 26.9281 17.5247 26.8841 17.5287 26.8394C17.5892 26.1739 17.1887 25.5525 16.5576 25.3325C15.6422 25.0136 15.0271 24.1571 15.0271 23.2013C15.0271 22.4971 15.3499 21.9913 15.6202 21.6908C16.1197 21.137 16.1197 20.2956 15.6207 19.7416ZM17.2991 35.4138C16.7318 35.4138 16.2701 34.9522 16.2701 34.3848V31.8996C16.2701 31.5236 16.475 31.1975 16.7769 31.0179L17.4804 35.4138H17.2991ZM19.7026 30.8706H19.8996C21.2242 30.8706 22.3436 29.9221 22.5618 28.6155L23.2364 24.5669C24.016 24.4194 24.7465 24.095 25.3759 23.6224C26.26 24.2863 27.3442 24.6576 28.4823 24.6576C29.6203 24.6576 30.7047 24.2861 31.5888 23.6224C32.4728 24.2863 33.557 24.6576 34.6952 24.6576C35.8332 24.6576 36.9175 24.2861 37.8016 23.6224C38.4308 24.095 39.1615 24.4192 39.9411 24.5669L40.6157 28.6157C40.7747 29.5693 41.4151 30.33 42.264 30.6726L41.9528 32.618H40.2868C36.9145 32.618 34.171 35.3616 34.171 38.7338V45.1966C33.9089 45.2988 33.6288 45.3544 33.3456 45.3544H28.5893C28.0589 45.3544 27.5425 45.1675 27.1351 44.8278L22.1478 40.6717C21.495 40.1277 21.0618 39.3663 20.9275 38.5273L19.7026 30.8706ZM20.9435 51.2274C22.6079 50.7154 23.7259 49.2014 23.7259 47.4604V45.7776L25.2709 47.0653C26.2008 47.8402 27.3792 48.2668 28.5897 48.2668H33.346C33.623 48.2668 33.899 48.2432 34.1713 48.1989V57.5687C33.3169 57.7083 32.4483 57.7805 31.5764 57.7805C26.7188 57.7805 22.1378 55.5579 19.1217 51.7881L20.9435 51.2274ZM7.57205 76.0115V57.937C7.57205 56.3845 8.56908 55.0348 10.0527 54.5781L16.1644 52.6978C19.6982 57.7054 25.4511 60.6925 31.5764 60.6925C32.4463 60.6925 33.3136 60.6313 34.1713 60.5131V66.6921C34.1713 70.0645 36.915 72.8079 40.2872 72.8079H46.5972V80.6712C46.5972 80.704 46.5999 80.736 46.6021 80.7682H38.6368V79.1178C38.6368 75.7454 35.8931 73.0019 32.5209 73.0019H16.9885C16.9349 73.0019 16.8915 72.9585 16.8915 72.9049V63.5855C16.8915 62.7814 16.2396 62.1293 15.4353 62.1293C14.6312 62.1293 13.9791 62.7812 13.9791 63.5855V72.9049C13.9791 74.5644 15.329 75.9144 16.9885 75.9144H26.4049V80.7682H12.3289C9.70597 80.7683 7.57205 78.6343 7.57205 76.0115ZM29.3173 80.7683V75.9145H32.5209C34.2874 75.9145 35.7245 77.3517 35.7245 79.1181V80.7685L29.3173 80.7683ZM90.0878 83.7778V86.8842C90.0878 86.9378 90.0443 86.9812 89.9908 86.9812H3.00942C2.95584 86.9812 2.91243 86.9378 2.91243 86.8842V83.7778C2.91243 83.7242 2.95584 83.6808 3.00942 83.6808H89.9906C90.0442 83.6806 90.0878 83.7242 90.0878 83.7778ZM55.9293 80.7683L58.4565 61.8143C58.5655 60.9977 59.2686 60.3821 60.0925 60.3821H67.0788C67.9025 60.3821 68.6058 60.9977 68.7148 61.8143L71.2422 80.7683H55.9293Z" stroke="#375344" stroke-width="4" mask="url(#path-1-inside-1_1440_6)"/>
<path d="M67.1487 49.6066C67.1487 51.5702 65.5497 53.1692 63.5861 53.1692C61.6224 53.1692 60.0234 51.5702 60.0234 49.6066C60.0234 47.643 61.6224 46.0439 63.5861 46.0439C65.5497 46.0439 67.1487 47.643 67.1487 49.6066ZM66.2365 49.6068C66.2365 48.1445 65.0484 46.9564 63.5861 46.9564C62.1238 46.9564 60.9357 48.1445 60.9357 49.6068C60.9357 51.0691 62.1238 52.2571 63.5861 52.2571C65.0484 52.2571 66.2365 51.0691 66.2365 49.6068Z" stroke="#FF964C" stroke-opacity="0.65" stroke-width="2"/>
</svg>
