<svg width="86" height="64" viewBox="0 0 86 64" fill="none" xmlns="http://www.w3.org/2000/svg">
<path d="M0.5 1.70648V1.70637C0.499822 0.937875 0.99707 0.5 1.45749 0.5H84.3507C84.8425 0.5 85.3828 0.971076 85.3828 1.70648V61.4429C85.3828 62.1783 84.8425 62.6494 84.3507 62.6494H1.45749C0.99721 62.6494 0.5 62.2114 0.5 61.4429V1.70648Z" stroke="#F8B282"/>
<path d="M4.7389 3.01953H82.4556C82.7867 3.01953 83.1225 3.31227 83.1225 3.81931V57.9494C83.1225 58.4561 82.7867 58.7489 82.4556 58.7489H3.35444C3.02315 58.7489 2.6875 58.4562 2.6875 57.9494V5.36482C2.6875 5.3648 2.6875 5.36477 2.6875 5.36475C2.68773 3.97192 3.67161 3.01953 4.7389 3.01953Z" stroke="#F8B282"/>
<path d="M42.9418 60.5605C43.0574 60.5605 43.2427 60.6836 43.2427 60.9558C43.2427 61.2253 43.0586 61.3487 42.9418 61.3487C42.8233 61.3487 42.6387 61.2235 42.6387 60.9558C42.6387 60.6856 42.8246 60.5605 42.9418 60.5605Z" stroke="#375344"/>
<path d="M7.5 5.45703H10.6552V9.09037H7.5V5.45703ZM12.4581 47.8827H15.6133V51.5145H12.4581V47.8827ZM7.5 47.8827H10.6552V51.5145H7.5V47.8827ZM12.4581 42.5989H15.6133V46.232H12.4581V42.5989ZM7.5 42.5989H10.6552V46.232H7.5V42.5989ZM12.4581 37.2348H15.6133V40.9496H12.4581V37.2348ZM7.5 37.2348H10.6552V40.9496H7.5V37.2348ZM12.4581 31.9523H15.6133V35.5844H12.4581V31.9523ZM7.5 31.9523H10.6552V35.5844H7.5V31.9523ZM12.4581 26.6696H15.6133V30.3017H12.4581V26.6696ZM7.5 26.6696H10.6552V30.3017H7.5V26.6696ZM12.4581 21.3871H15.6133V25.0192H12.4581V21.3871ZM7.5 21.3871H10.6552V25.0192H7.5V21.3871ZM12.4581 16.0232H15.6133V19.6553H12.4581V16.0232ZM7.5 16.0232H10.6552V19.6553H7.5V16.0232ZM12.4581 10.7398H15.6133V14.3731H12.4581V10.7398ZM7.5 10.7398H10.6552V14.3731H7.5V10.7398ZM12.4581 5.45703H15.6133V9.09037H12.4581V5.45703Z" stroke="#375344"/>
<path d="M25.4361 10.899V8.02539H25.5657V14.8975H25.4361V12.0238V11.5238H24.9361H23.6756H23.1756V12.0238V14.8975H23.0664V8.02539H23.1756V10.899V11.399H23.6756H24.9361H25.4361V10.899Z" stroke="#375344"/>
<path d="M27.7105 8.14994H27.0508V8.02539H29.4795V8.14994H28.8197H28.3197V8.64994V14.8975H28.2105V8.64994V8.14994H27.7105Z" stroke="#375344"/>
<path d="M32.6795 14.8975L32.4253 13.1863L33.0932 13.1827L32.8604 14.8975H32.6795ZM31.8181 9.76449L30.9531 9.82839V8.02539H31.5638L31.8181 9.76449ZM33.7798 9.69913L34.0063 8.02539H34.6123V14.8975H34.5635V9.75208L33.7798 9.69913Z" stroke="#375344"/>
<path d="M37.0291 14.7729H38.3545V14.8975H36.4199V8.02539H36.5291V14.2729V14.7729H37.0291Z" stroke="#375344"/>
<path d="M56.2971 41.9275L55.9457 42.1625L56.1189 42.5481C56.1785 42.6808 56.2202 42.8499 56.2202 42.9119V43.4119H56.7202H57.0954V43.5497H56.7934H56.4216L56.3146 43.9057C56.2694 44.0562 56.2469 44.1818 56.2287 44.2831L56.2281 44.2863C56.2098 44.3886 56.1958 44.4654 56.1683 44.5583L56.0548 44.9422L56.4047 45.137L56.6982 45.3003L56.632 45.4204L56.4349 45.2741L55.9338 44.9021L55.68 45.4722C55.6468 45.5469 55.5634 45.6475 55.4006 45.829L55.1739 46.0816L55.3251 46.3856L55.4907 46.7185L55.4597 46.7387L55.345 46.5085L55.1441 46.1056L54.7225 46.2633C54.6713 46.2824 54.6229 46.3018 54.5827 46.3179C54.5746 46.3212 54.5669 46.3243 54.5595 46.3272C54.5123 46.346 54.4781 46.3593 54.4471 46.3697C54.3918 46.3882 54.3555 46.3946 54.3144 46.3946H53.8144V46.8946V47.2073H53.7937V46.8946V46.3946H53.2937C53.2946 46.3946 53.2942 46.3946 53.2926 46.3944C53.285 46.3933 53.2498 46.3881 53.1752 46.3654C53.0923 46.3402 52.9977 46.3052 52.8853 46.2632L52.4287 46.0927L52.4953 45.9589L52.0793 45.7264C52.0345 45.7014 51.96 45.6239 51.9274 45.5512L51.6801 45.001L51.1853 45.346L51.0418 45.446L50.9866 45.3537L51.224 45.2071L51.5969 44.9766L51.4173 44.5768C51.3608 44.4512 51.2974 44.2443 51.222 43.9894L51.116 43.6313H50.7426H50.5859V43.4936H50.7426H51.1168L51.2223 43.1346C51.2536 43.0278 51.2854 42.9385 51.3219 42.8372L51.3259 42.826C51.361 42.7285 51.4005 42.6185 51.44 42.4871L51.5504 42.12L51.2245 41.9181L50.9631 41.7562L51.0086 41.6693L51.208 41.7928L51.5636 42.0131L51.8432 41.7019C51.9889 41.5398 52.1359 41.3759 52.282 41.2116L52.4956 40.9714L52.5512 41.0954L53.0279 40.8282C53.0718 40.8036 53.1338 40.7757 53.1963 40.7549C53.2267 40.7448 53.2528 40.7379 53.2729 40.7338C53.2874 40.7308 53.2949 40.7301 53.2962 40.73H53.7937V40.23V39.8359H53.8144V40.23V40.5784L54.1412 40.6991C54.2655 40.745 54.3755 40.7716 54.4488 40.7893C54.459 40.7918 54.4684 40.794 54.4771 40.7962C54.5544 40.8153 54.5709 40.823 54.5808 40.8285L55.024 41.0762L55.2649 40.6292L55.445 40.2949L55.5056 40.3344L55.3165 40.7566L55.2247 40.9613L55.3167 41.166C55.3859 41.32 55.4862 41.4315 55.5383 41.4894C55.5411 41.4925 55.5437 41.4955 55.5462 41.4983C55.5759 41.5314 55.5895 41.547 55.6004 41.5614C55.6063 41.5691 55.6087 41.573 55.6093 41.5741L55.8524 42.112L56.3431 41.7831L56.6083 41.6053L56.6525 41.6899L56.2971 41.9275ZM52.2459 46.5464L52.1718 46.7322L52.1247 46.7039L52.283 46.3856L52.4194 46.1113L52.2459 46.5464ZM52.3375 40.6227L52.1566 40.3202L52.1932 40.2983L52.3273 40.5969L52.3433 40.6324L52.3375 40.6227Z" stroke="#375344"/>
<path d="M54.7235 42.8744L54.7236 42.8747C55.0543 43.4922 54.8562 44.2704 54.3475 44.6089L54.3472 44.609C53.8765 44.9225 53.2415 44.7771 52.9252 44.1871C52.5953 43.5706 52.793 42.7931 53.3017 42.4528C53.7746 42.1396 54.409 42.2862 54.7235 42.8744Z" stroke="#375344"/>
<path d="M54.4311 43.0731L54.4308 43.0725C54.2121 42.6639 53.7883 42.5777 53.4799 42.7832C53.1343 43.0141 52.9898 43.557 53.2221 43.9908L54.4311 43.0731ZM54.4311 43.0731C54.6639 43.507 54.5189 44.0506 54.1736 44.28L54.1729 44.2805M54.4311 43.0731L54.1729 44.2805M54.1729 44.2805C53.8655 44.4855 53.4416 44.4001 53.2221 43.9909L54.1729 44.2805Z" stroke="#375344"/>
<path d="M39.7436 26.6501L39.4403 26.856L39.5455 27.2072C39.682 27.6628 39.7511 28.042 39.8229 28.5192L39.8895 28.9624L40.3373 28.9445L41.8582 28.8836V30.6479L40.369 30.7089L39.9553 30.7258L39.8948 31.1354C39.8221 31.6277 39.7532 32.08 39.6189 32.5272L39.5133 32.8787L39.817 33.0848L41.1242 33.9716L40.344 35.4544L39.1252 34.6865L38.6722 34.4011L38.4184 34.8725C38.3365 35.0248 38.2205 35.1738 38.0765 35.3344C38.0048 35.4143 37.9301 35.4929 37.8509 35.5759L37.8412 35.5861C37.7667 35.6643 37.6875 35.7473 37.6121 35.831L37.3782 36.0908L37.5418 36.3997L38.2722 37.7786L36.9398 38.6211L36.3145 37.4015L36.1119 37.0066L35.6957 37.1609C35.2506 37.3259 34.854 37.4715 34.4656 37.5439L34.0572 37.62V38.0354V39.4866H32.5784V38.117V37.6907L32.1574 37.6233C31.7025 37.5505 31.3091 37.4061 30.8677 37.2425L30.4601 37.0914L30.2538 37.474L29.6359 38.6199L28.3481 37.7779L28.9548 36.5505L29.105 36.2466L28.8783 35.9946C28.6738 35.7672 28.4704 35.5402 28.2666 35.3127C28.1791 35.215 28.0916 35.1173 28.0038 35.0194L27.7256 34.7091L27.3702 34.9269L26.3561 35.5485L25.5219 34.0502L26.597 33.3316L26.9042 33.1264L26.7982 32.7725C26.6502 32.2785 26.516 31.824 26.4489 31.3778L26.3849 30.9521H25.9545H24.7653L24.7185 29.1896H25.9545H26.3942L26.4504 28.7534C26.5188 28.2226 26.6557 27.6826 26.7982 27.207L26.9041 26.8532L26.5972 26.6479L25.5075 25.919L26.2958 24.3674L27.363 25.047L27.7208 25.2748L28.0039 24.9588C28.0802 24.8737 28.1557 24.7843 28.2266 24.7003L28.2332 24.6926C28.3077 24.6043 28.3782 24.521 28.4498 24.4411C28.5948 24.2796 28.7262 24.1532 28.8576 24.0654L29.2209 23.8223L29.0286 23.4298L28.3469 22.0385L29.6327 21.1986L30.3243 22.5028L30.5293 22.8893L30.9395 22.7375C31.3315 22.5925 31.7273 22.5175 32.17 22.4348L32.5782 22.3585V21.9433V20.3301H34.057V22.0249V22.4403L34.4654 22.5164C34.8923 22.596 35.2242 22.67 35.622 22.8177L36.0401 22.9729L36.2419 22.5753L36.9416 21.1965L38.274 22.0382L37.4671 23.5811L37.2801 23.9387L37.5902 24.197C37.8446 24.4088 38.1041 24.6982 38.299 24.9867L38.5741 25.3941L38.9861 25.1259L40.2753 24.2866L41.0511 25.7623L39.7436 26.6501Z" stroke="#375344"/>
<path d="M30.514 31.8276L30.514 31.8276C31.453 33.5802 33.4378 34.1065 34.9529 33.0983L30.514 31.8276ZM30.514 31.8276C29.5608 30.0488 30.1004 27.7654 31.6519 26.7322L31.6519 26.7322M30.514 31.8276L31.6519 26.7322M31.6519 26.7322C33.1658 25.724 35.1505 26.2499 36.0899 28.0028C37.0431 29.7816 36.5035 32.0649 34.9532 33.0981L31.6519 26.7322Z" stroke="#375344"/>
<path d="M35.3788 28.4753L35.3789 28.4756C36.0979 29.8168 35.6868 31.5336 34.5279 32.3055C33.4065 33.0523 31.9302 32.6698 31.2251 31.3544C30.5062 30.0132 30.9172 28.2963 32.0762 27.5245C33.1977 26.7776 34.6749 27.1604 35.3788 28.4753Z" stroke="#375344"/>
<path d="M53.9512 6.14062H80.1781V28.0258H53.9512V6.14062Z" stroke="#375344"/>
<path d="M53.9512 6.14062H80.1781V8.28173H53.9512V6.14062Z" stroke="#375344"/>
<path d="M55.9824 21.8457H65.9545V22.1919H55.9824V21.8457Z" stroke="#375344"/>
<path d="M67.3613 21.8457H70.425V22.1919H67.3613V21.8457Z" stroke="#375344"/>
<path d="M72.2383 21.8457H78.1466V22.1919H72.2383V21.8457Z" stroke="#375344"/>
<path d="M66.9551 23.6406H76.5207V23.9868H66.9551V23.6406Z" stroke="#375344"/>
<path d="M62.4844 23.6406H65.1417V23.9868H62.4844V23.6406Z" stroke="#375344"/>
<path d="M54.7637 23.6406H60.672V23.9868H54.7637V23.6406Z" stroke="#375344"/>
<path d="M69.3926 25.4355H78.9582V25.7817H69.3926V25.4355Z" stroke="#375344"/>
<path d="M64.9219 25.4355H67.5792V25.7817H64.9219V25.4355Z" stroke="#375344"/>
<path d="M57.2012 25.4355H63.1095V25.7817H57.2012V25.4355Z" stroke="#375344"/>
<path d="M55.3989 9.69668C55.41 9.70884 55.4387 9.72949 55.4825 9.72949C55.5258 9.72949 55.5548 9.709 55.5661 9.69647C55.5748 9.68689 55.576 9.6801 55.5762 9.67885C55.5762 9.67884 55.5762 9.67884 55.5762 9.67884M55.3989 9.69668L55.5762 9.67884M55.3989 9.69668C55.39 9.6868 55.389 9.67983 55.3889 9.67885C55.389 9.67797 55.3899 9.67032 55.3996 9.65968C55.4111 9.64704 55.4398 9.62695 55.4825 9.62695C55.5248 9.62695 55.5537 9.64687 55.5655 9.65989C55.5748 9.67019 55.576 9.67763 55.5762 9.67884M55.3989 9.69668L55.5762 9.67884" stroke="#375344"/>
<path d="M56.6178 9.69646C56.6291 9.70905 56.6581 9.72949 56.7013 9.72949C56.7452 9.72949 56.774 9.70879 56.7849 9.69669C56.7939 9.68674 56.7948 9.67976 56.7949 9.67885M56.6178 9.69646L56.6077 9.67885M56.6178 9.69646C56.6092 9.68694 56.6079 9.68017 56.6077 9.67885M56.6178 9.69646L56.6077 9.67885M56.7949 9.67885C56.7949 9.6789 56.7949 9.67893 56.7949 9.67893C56.7949 9.67893 56.7949 9.6789 56.7949 9.67885ZM56.7949 9.67885C56.7949 9.67878 56.7949 9.67874 56.7949 9.67874C56.7949 9.67874 56.7949 9.67878 56.7949 9.67885ZM56.7949 9.67885C56.7948 9.67798 56.7939 9.67035 56.7843 9.65971C56.7728 9.64705 56.7441 9.62695 56.7013 9.62695C56.6591 9.62695 56.6303 9.64682 56.6184 9.6599C56.6091 9.67014 56.6078 9.67756 56.6077 9.67883C56.6077 9.67884 56.6077 9.67884 56.6077 9.67885" stroke="#FF964C" stroke-opacity="0.65"/>
<mask id="path-28-inside-1_1440_26" fill="white">
<path d="M58.1232 9.22949C58.4599 9.22949 58.7328 9.43087 58.7328 9.67885C58.7328 9.92682 58.4599 10.1269 58.1232 10.1269C57.7866 10.1269 57.5137 9.9267 57.5137 9.67885C57.5137 9.43099 57.7866 9.22949 58.1232 9.22949Z"/>
</mask>
<path d="M58.1232 10.2295C58.0999 10.2295 58.0392 10.2239 57.9608 10.166C57.8828 10.1086 57.7328 9.94782 57.7328 9.67885H59.7328C59.7328 9.16189 59.4463 8.77647 59.1477 8.55633C58.8487 8.33582 58.4832 8.22949 58.1232 8.22949V10.2295ZM57.7328 9.67885C57.7328 9.40914 57.8836 9.24772 57.9622 9.18996C58.041 9.1321 58.1013 9.12695 58.1232 9.12695V11.1269C58.4818 11.1269 58.8469 11.0217 59.1463 10.8018C59.4455 10.582 59.7328 10.1965 59.7328 9.67885H57.7328ZM58.1232 9.12695C58.1453 9.12695 58.2056 9.13215 58.2843 9.18997C58.3628 9.24763 58.5137 9.409 58.5137 9.67885H56.5137C56.5137 10.1965 56.801 10.582 57.1001 10.8017C57.3994 11.0216 57.7645 11.1269 58.1232 11.1269V9.12695ZM58.5137 9.67885C58.5137 9.94797 58.3635 10.1087 58.2858 10.166C58.2074 10.2238 58.1467 10.2295 58.1232 10.2295V8.22949C57.7631 8.22949 57.3976 8.33593 57.0986 8.55644C56.8003 8.77651 56.5137 9.16187 56.5137 9.67885H58.5137Z" fill="#375344" mask="url(#path-28-inside-1_1440_26)"/>
<path d="M55.1699 11.9736H78.9586V19.4995H55.1699V11.9736Z" stroke="#375344"/>
</svg>
