<svg width="40" height="40" viewBox="0 0 40 40" fill="none" xmlns="http://www.w3.org/2000/svg">
<path d="M8.45833 19.9993H13.3333C13.6389 19.9993 13.9306 20.0755 14.2083 20.2277C14.4861 20.381 14.6944 20.6105 14.8333 20.916L16.6667 24.5827L21.8333 14.2493C22.1389 13.6105 22.6389 13.291 23.3333 13.291C24.0278 13.291 24.5278 13.6105 24.8333 14.2493L27.7083 19.9993H31.5417C31.125 17.166 29.8333 14.791 27.6667 12.8743C25.5 10.9577 22.9444 9.99935 20 9.99935C17.0556 9.99935 14.5 10.9577 12.3333 12.8743C10.1667 14.791 8.875 17.166 8.45833 19.9993ZM20 33.3327C22.9444 33.3327 25.5 32.3743 27.6667 30.4577C29.8333 28.541 31.125 26.166 31.5417 23.3327H26.6667C26.3611 23.3327 26.0694 23.2566 25.7917 23.1043C25.5139 22.951 25.3056 22.7216 25.1667 22.416L23.3333 18.7493L18.1667 29.0827C17.8611 29.7216 17.3611 30.041 16.6667 30.041C15.9722 30.041 15.4722 29.7216 15.1667 29.0827L12.2917 23.3327H8.45833C8.875 26.166 10.1667 28.541 12.3333 30.4577C14.5 32.3743 17.0556 33.3327 20 33.3327ZM20 36.666C17.9444 36.666 16.0067 36.2705 14.1867 35.4793C12.3678 34.6871 10.7778 33.6105 9.41667 32.2493C8.05556 30.8882 6.97889 29.2982 6.18667 27.4793C5.39556 25.6593 5 23.7216 5 21.666H8.33333C8.33333 24.8882 9.47222 27.6382 11.75 29.916C14.0278 32.1938 16.7778 33.3327 20 33.3327C23.2222 33.3327 25.9722 32.1938 28.25 29.916C30.5278 27.6382 31.6667 24.8882 31.6667 21.666H35C35 23.7216 34.6044 25.6593 33.8133 27.4793C33.0211 29.2982 31.9444 30.8882 30.5833 32.2493C29.2222 33.6105 27.6322 34.6871 25.8133 35.4793C23.9933 36.2705 22.0556 36.666 20 36.666ZM5 21.666C5 19.6105 5.39556 17.6727 6.18667 15.8527C6.97889 14.0338 8.05556 12.4438 9.41667 11.0827C10.7778 9.72157 12.3678 8.64546 14.1867 7.85435C16.0067 7.06213 17.9444 6.66602 20 6.66602C21.7222 6.66602 23.375 6.94379 24.9583 7.49935C26.5417 8.0549 28.0278 8.86046 29.4167 9.91601L31.75 7.58268L34.0833 9.91601L31.75 12.2493C32.8056 13.6382 33.6111 15.1243 34.1667 16.7077C34.7222 18.291 35 19.9438 35 21.666H31.6667C31.6667 18.4438 30.5278 15.6938 28.25 13.416C25.9722 11.1382 23.2222 9.99935 20 9.99935C16.7778 9.99935 14.0278 11.1382 11.75 13.416C9.47222 15.6938 8.33333 18.4438 8.33333 21.666H5ZM15 4.99935V1.66602H25V4.99935H15ZM20 33.3327C16.7778 33.3327 14.0278 32.1938 11.75 29.916C9.47222 27.6382 8.33333 24.8882 8.33333 21.666C8.33333 18.4438 9.47222 15.6938 11.75 13.416C14.0278 11.1382 16.7778 9.99935 20 9.99935C23.2222 9.99935 25.9722 11.1382 28.25 13.416C30.5278 15.6938 31.6667 18.4438 31.6667 21.666C31.6667 24.8882 30.5278 27.6382 28.25 29.916C25.9722 32.1938 23.2222 33.3327 20 33.3327Z" fill="#EAE6E5"/>
</svg>
