<svg width="72" height="36" viewBox="0 0 72 36" fill="none" xmlns="http://www.w3.org/2000/svg">
<path d="M7.41447 6.04195C7.41447 5.81936 7.23471 5.63891 7.01295 5.63891C6.7912 5.63891 6.61143 5.81936 6.61143 6.04195H7.41447ZM6.61143 16.5967V16.9997H7.41447V16.5967H6.61143ZM25.0056 6.04195C25.0056 5.81936 24.8258 5.63891 24.6041 5.63891C24.3823 5.63891 24.2026 5.81936 24.2026 6.04195H25.0056ZM24.2026 10.427V10.8301H25.0056V10.427H24.2026ZM27.0865 26.3583C27.0865 26.5809 27.2663 26.7613 27.488 26.7613C27.7097 26.7613 27.8895 26.5809 27.8895 26.3583H27.0865ZM65.0083 6.445C65.23 6.445 65.4098 6.26455 65.4098 6.04195C65.4098 5.81936 65.23 5.63891 65.0083 5.63891V6.445ZM27.4933 29.7853C27.2716 29.7853 27.0918 29.9658 27.0918 30.1884C27.0918 30.411 27.2716 30.5914 27.4933 30.5914V29.7853ZM2.48942 0.806098H69.5106V0H2.48942V0.806098ZM71.197 2.4989V33.5011H72V2.4989H71.197ZM69.5106 35.1939H2.48942V36H69.5106V35.1939ZM0.803037 33.5011V2.4989H0V33.5011H0.803037ZM2.48942 35.1939C1.55806 35.1939 0.803037 34.436 0.803037 33.5011H0C0 34.8812 1.11455 36 2.48942 36V35.1939ZM71.197 33.5011C71.197 34.436 70.4419 35.1939 69.5106 35.1939V36C70.8855 36 72 34.8812 72 33.5011H71.197ZM69.5106 0.806098C70.4419 0.806098 71.197 1.56399 71.197 2.4989H72C72 1.1188 70.8855 0 69.5106 0V0.806098ZM2.48942 0C1.11455 0 0 1.1188 0 2.4989H0.803037C0.803037 1.56399 1.55806 0.806098 2.48942 0.806098V0ZM6.61143 6.04195V16.5967H7.41447V6.04195H6.61143ZM24.2026 6.04195V10.427H25.0056V6.04195H24.2026ZM6.61143 23.2496V24.8865H7.41447V23.2496H6.61143ZM12.2327 30.5292H22.4359V29.7231H12.2327V30.5292ZM25.0056 27.9497V16.995H24.2026V27.9497H25.0056ZM22.4359 30.5292C23.8551 30.5292 25.0056 29.3744 25.0056 27.9497H24.2026C24.2026 28.9292 23.4116 29.7231 22.4359 29.7231V30.5292ZM6.61143 24.8865C6.61143 28.0029 9.12815 30.5292 12.2327 30.5292V29.7231C9.57167 29.7231 7.41447 27.5577 7.41447 24.8865H6.61143ZM31.9047 6.445H38.129V5.63891H31.9047V6.445ZM41.9033 10.2336V14.0781H42.7063V10.2336H41.9033ZM27.8895 26.3583V18.5922H27.0865V26.3583H27.8895ZM27.8895 18.5922V10.4755H27.0865V18.5922H27.8895ZM37.8078 18.1892H27.488V18.9953H37.8078V18.1892ZM41.9033 14.0781C41.9033 16.3486 40.0697 18.1892 37.8078 18.1892V18.9953C40.5131 18.9953 42.7063 16.7938 42.7063 14.0781H41.9033ZM38.129 6.445C40.2134 6.445 41.9033 8.14126 41.9033 10.2336H42.7063C42.7063 7.69605 40.657 5.63891 38.129 5.63891V6.445ZM31.9047 5.63891C29.2437 5.63891 27.0865 7.80433 27.0865 10.4755H27.8895C27.8895 8.24952 29.6872 6.445 31.9047 6.445V5.63891ZM65.0083 5.63891H50.0069V6.445H65.0083V5.63891ZM44.7871 10.8785V13.7481H45.5902V10.8785H44.7871ZM50.0069 18.9877H52.1819V18.1816H50.0069V18.9877ZM44.7871 13.7481C44.7871 16.6418 47.1241 18.9877 50.0069 18.9877V18.1816C47.5676 18.1816 45.5902 16.1967 45.5902 13.7481H44.7871ZM50.0069 5.63891C47.1241 5.63891 44.7871 7.98477 44.7871 10.8785H45.5902C45.5902 8.43 47.5676 6.445 50.0069 6.445V5.63891ZM58.2421 18.9707H60.7695V18.1646H58.2421V18.9707ZM65.1836 23.2515L65.2505 25.1991L66.053 25.1713L65.9861 23.2238L65.1836 23.2515ZM60.8363 29.7853H27.4933V30.5914H60.8363V29.7853ZM65.2505 25.1991C65.3365 27.706 63.3353 29.7853 60.8363 29.7853V30.5914C63.7896 30.5914 66.1548 28.134 66.053 25.1713L65.2505 25.1991ZM60.7695 18.9707C63.1495 18.9707 65.1016 20.8638 65.1836 23.2515L65.9861 23.2238C65.8892 20.4019 63.5823 18.1646 60.7695 18.1646V18.9707Z" fill="#EAE6E5"/>
</svg>
