<svg width="14" height="38" viewBox="0 0 14 38" fill="none" xmlns="http://www.w3.org/2000/svg">
<path d="M10.5677 37.9997C9.92769 37.9997 9.36769 37.7597 8.88769 37.2797C8.40769 36.7997 8.16769 36.2237 8.16769 35.5517V6.27172L4.66369 7.75972C4.11969 7.98372 3.60769 8.09572 3.12769 8.09572C2.42369 8.09572 1.83169 7.87172 1.35169 7.42372C0.903688 6.97572 0.679688 6.39972 0.679688 5.69572C0.679688 5.18372 0.807688 4.71972 1.06369 4.30372C1.31969 3.88772 1.71969 3.58372 2.26369 3.39172L9.75169 0.703719C9.91169 0.639718 10.0717 0.591718 10.2317 0.559718C10.3917 0.527719 10.5357 0.511719 10.6637 0.511719C11.3997 0.511719 11.9757 0.751719 12.3917 1.23172C12.8397 1.67972 13.0637 2.27172 13.0637 3.00772V35.5517C13.0637 36.2237 12.8237 36.7997 12.3437 37.2797C11.8637 37.7597 11.2717 37.9997 10.5677 37.9997Z" fill="#5B9279"/>
</svg>
