<svg width="23" height="38" viewBox="0 0 23 38" fill="none" xmlns="http://www.w3.org/2000/svg">
<path d="M2.56909 37.9997C1.86509 37.9997 1.27309 37.7597 0.793094 37.2797C0.345094 36.7997 0.121094 36.2237 0.121094 35.5517C0.121094 34.8477 0.345094 34.2717 0.793094 33.8237L14.4251 17.8877C15.3851 16.7677 16.1211 15.7117 16.6331 14.7197C17.1771 13.7277 17.4491 12.7837 17.4491 11.8877C17.4491 10.4797 17.2091 9.26372 16.7291 8.23972C16.2491 7.21572 15.5611 6.43172 14.6651 5.88772C13.7691 5.31172 12.6971 5.02372 11.4491 5.02372C10.2331 5.02372 9.12909 5.34372 8.13709 5.98372C7.17709 6.59172 6.40909 7.42372 5.83309 8.47972C5.28909 9.50372 5.01709 10.6397 5.01709 11.8877C5.01709 12.5277 4.77709 13.0877 4.29709 13.5677C3.84909 14.0477 3.27309 14.2877 2.56909 14.2877C1.89709 14.2877 1.32109 14.0477 0.841094 13.5677C0.361094 13.0877 0.121094 12.5277 0.121094 11.8877C0.121094 9.71172 0.617094 7.77572 1.60909 6.07972C2.60109 4.35172 3.94509 2.99172 5.64109 1.99972C7.36909 1.00772 9.30509 0.511719 11.4491 0.511719C13.6251 0.511719 15.5131 0.975718 17.1131 1.90372C18.7131 2.83172 19.9451 4.14372 20.8091 5.83972C21.7051 7.53572 22.1531 9.55172 22.1531 11.8877C22.1531 12.9117 21.9291 13.9517 21.4811 15.0077C21.0651 16.0637 20.5211 17.0717 19.8491 18.0317C19.2091 18.9917 18.5531 19.8557 17.8811 20.6237L6.88909 33.1037H20.3291C21.0331 33.1037 21.6251 33.3597 22.1051 33.8717C22.5851 34.3517 22.8251 34.9117 22.8251 35.5517C22.8251 36.2237 22.5851 36.7997 22.1051 37.2797C21.6251 37.7597 21.0331 37.9997 20.3291 37.9997H2.56909Z" fill="#5B9279"/>
</svg>
