<svg width="25" height="38" viewBox="0 0 25 38" fill="none" xmlns="http://www.w3.org/2000/svg">
<path d="M12.9766 37.9999C10.5766 37.9999 8.44863 37.5039 6.59263 36.5119C4.73663 35.4879 3.28063 34.1119 2.22463 32.3839C1.16862 30.6239 0.640625 28.6559 0.640625 26.4799C0.640625 25.7439 0.848625 25.1519 1.26463 24.7039C1.71263 24.2239 2.24062 23.9839 2.84862 23.9839C3.48863 23.9839 4.01663 24.2239 4.43263 24.7039C4.84863 25.1519 5.05662 25.7439 5.05662 26.4799C5.05662 27.7919 5.39262 29.0079 6.06463 30.1279C6.73663 31.2159 7.64862 32.0959 8.80062 32.7679C9.95263 33.4079 11.2486 33.7279 12.6886 33.7279C14.8006 33.7279 16.4966 33.1519 17.7766 31.9999C19.0886 30.8159 19.7446 29.1679 19.7446 27.0559C19.7446 25.7119 19.4566 24.5119 18.8806 23.4559C18.3046 22.3679 17.5206 21.5039 16.5286 20.8639C15.5366 20.2239 14.4166 19.9039 13.1686 19.9039C12.4646 19.9039 11.8726 19.6639 11.3926 19.1839C10.9446 18.7039 10.7206 18.1119 10.7206 17.4079C10.7206 16.7039 10.9446 16.1279 11.3926 15.6799C11.8726 15.1999 12.4646 14.9599 13.1686 14.9599C14.0646 14.9599 14.9286 14.7359 15.7606 14.2879C16.5926 13.8079 17.2806 13.1839 17.8246 12.4159C18.3686 11.6159 18.6406 10.7199 18.6406 9.72787C18.6406 8.31987 18.1286 7.13587 17.1046 6.17587C16.0806 5.21587 14.7686 4.73587 13.1686 4.73587C11.9526 4.73587 10.8326 4.97587 9.80863 5.45587C8.81663 5.93587 8.01662 6.57587 7.40863 7.37587C6.83262 8.17587 6.54462 9.07187 6.54462 10.0639C6.54462 10.7999 6.33663 11.4239 5.92063 11.9359C5.50463 12.4159 4.97663 12.6559 4.33662 12.6559C3.72863 12.6559 3.20063 12.4319 2.75263 11.9839C2.33663 11.5039 2.12862 10.9119 2.12862 10.2079C2.12862 8.35187 2.60862 6.68787 3.56862 5.21587C4.52863 3.74387 5.84063 2.59187 7.50463 1.75987C9.16862 0.895867 11.0246 0.463867 13.0726 0.463867C14.9606 0.463867 16.6566 0.879868 18.1606 1.71187C19.6966 2.51187 20.8966 3.61587 21.7606 5.02387C22.6566 6.39987 23.1046 7.96787 23.1046 9.72787C23.1046 10.9759 22.8166 12.0799 22.2406 13.0399C21.6966 13.9999 20.9926 14.8319 20.1286 15.5359C19.2646 16.2079 18.3526 16.7679 17.3926 17.2159C19.0886 17.7919 20.4646 18.5759 21.5206 19.5679C22.5766 20.5279 23.3446 21.6479 23.8246 22.9279C24.3366 24.2079 24.5926 25.5999 24.5926 27.1039C24.5926 29.1839 24.0646 31.0559 23.0086 32.7199C21.9526 34.3519 20.5446 35.6479 18.7846 36.6079C17.0246 37.5359 15.0886 37.9999 12.9766 37.9999Z" fill="#5B9279"/>
</svg>
