<svg width="30" height="38" viewBox="0 0 30 38" fill="none" xmlns="http://www.w3.org/2000/svg">
<path d="M21.697 37.9997C21.057 37.9997 20.513 37.7597 20.065 37.2797C19.617 36.7997 19.393 36.2237 19.393 35.5517V29.5037H3.40903C2.67303 29.5037 2.09703 29.2797 1.68103 28.8317C1.26503 28.3837 1.02503 27.8717 0.961031 27.2957C0.929031 26.6877 1.08903 26.1437 1.44103 25.6637L19.825 1.56772C20.081 1.24772 20.369 0.991717 20.689 0.799718C21.041 0.607718 21.425 0.511719 21.841 0.511719C22.513 0.511719 23.057 0.751719 23.473 1.23172C23.889 1.71172 24.097 2.30372 24.097 3.00772V25.0877H26.977C27.649 25.0877 28.225 25.2477 28.705 25.5677C29.185 25.8877 29.425 26.4637 29.425 27.2957C29.425 27.9037 29.185 28.4317 28.705 28.8797C28.225 29.2957 27.649 29.5037 26.977 29.5037H24.097V35.5517C24.097 36.2237 23.873 36.7997 23.425 37.2797C22.977 37.7597 22.401 37.9997 21.697 37.9997ZM6.28903 26.4317L4.99303 25.0877H19.393V5.31172L20.881 7.23172L6.28903 26.4317Z" fill="#5B9279"/>
</svg>
