<svg width="200" height="300" viewBox="0 0 200 300" fill="none" xmlns="http://www.w3.org/2000/svg">
<path opacity="0.43" d="M98.6817 300C85.6246 300 72.693 298.375 59.887 295.125C47.081 291.875 35.5304 287.25 25.2354 281.25C14.9404 275 7.03076 267.625 1.50659 259.125C0.502197 255.375 0 251.625 0 247.875C0.251098 243.875 2.00879 240.625 5.27307 238.125C8.53735 235.625 12.0527 234.75 15.8192 235.5C19.8368 236.25 23.2266 238.375 25.9887 241.875C33.7728 250.375 43.9422 257.25 56.4972 262.5C69.3032 267.75 83.3647 270.375 98.6817 270.375C112.241 270.375 124.168 268 134.463 263.25C145.009 258.5 153.296 251.75 159.322 243C165.348 234 168.362 223.5 168.362 211.5C168.362 194 162.837 180.375 151.789 170.625C140.992 160.625 126.93 155.625 109.605 155.625H85.8757C81.607 155.625 78.0916 154.375 75.3296 151.875C72.8186 149.125 71.5631 145.625 71.5631 141.375C71.5631 137.125 72.8186 133.75 75.3296 131.25C78.0916 128.5 81.4815 127.125 85.4991 127.125H105.838C119.9 127.125 131.576 122.625 140.866 113.625C150.157 104.375 154.802 92 154.802 76.5C154.802 60.5 149.278 48.625 138.23 40.875C127.181 33.125 112.994 29.25 95.6685 29.25C82.6114 29.25 70.6842 31.625 59.887 36.375C49.0898 41.125 40.1758 48.125 33.145 57.375C29.8807 61.625 26.2398 64.375 22.2222 65.625C18.4557 66.875 14.5637 66.25 10.5461 63.75C7.28186 61.5 5.14752 58.5 4.14312 54.75C3.13873 50.75 3.89203 47 6.40301 43.5C15.9448 30.75 27.9975 20.375 42.5612 12.375C57.1249 4.125 74.8274 0 95.6685 0C113.497 0 129.19 3.25 142.75 9.74999C156.309 16 166.981 24.75 174.765 36C182.549 47.25 186.441 60 186.441 74.25C186.441 84.5 184.306 93.875 180.038 102.375C176.02 110.875 170.621 118.25 163.842 124.5C157.062 130.75 149.655 135.625 141.62 139.125C133.836 142.375 126.303 144.25 119.021 144.75V134.625C127.558 135.125 136.472 137 145.763 140.25C155.304 143.5 164.093 148.375 172.128 154.875C180.414 161.375 187.068 169.375 192.09 178.875C197.363 188.375 200 199.625 200 212.625C200 229.375 195.606 244.375 186.817 257.625C178.029 270.625 165.976 281 150.659 288.75C135.593 296.25 118.267 300 98.6817 300Z" fill="url(#paint0_linear_1429_766)"/>
<defs>
<linearGradient id="paint0_linear_1429_766" x1="100" y1="-41" x2="100" y2="344" gradientUnits="userSpaceOnUse">
<stop stop-color="#81FFBB"/>
<stop offset="0.994792" stop-color="#4A6355" stop-opacity="0.46"/>
</linearGradient>
</defs>
</svg>
