<svg width="22" height="25" viewBox="0 0 22 25" fill="none" xmlns="http://www.w3.org/2000/svg">
<path d="M12.7887 24.4577C12.0768 24.4577 11.5718 24.1513 11.2734 23.5386C10.9738 22.927 11.0234 22.3365 11.422 21.7671L18.0418 12.4993L11.422 3.23164C11.0234 2.6622 10.9738 2.07111 11.2734 1.45839C11.5718 0.846808 12.0768 0.541016 12.7887 0.541016C13.1018 0.541016 13.3866 0.61903 13.6428 0.775057C13.8991 0.932224 14.1126 1.1247 14.2834 1.35247L21.5012 11.5171C21.615 11.6594 21.7005 11.816 21.7574 11.9868C21.8143 12.1577 21.8428 12.3285 21.8428 12.4993C21.8428 12.6702 21.8143 12.8336 21.7574 12.9896C21.7005 13.1468 21.615 13.3108 21.5012 13.4816L14.2834 23.6462C14.1126 23.874 13.8991 24.0665 13.6428 24.2236C13.3866 24.3797 13.1018 24.4577 12.7887 24.4577ZM2.62407 24.4577C1.91226 24.4577 1.40717 24.1513 1.10878 23.5386C0.809251 22.927 0.858793 22.3365 1.2574 21.7671L7.8772 12.4993L1.2574 3.23164C0.858793 2.6622 0.809251 2.07111 1.10878 1.45839C1.40717 0.846808 1.91226 0.541016 2.62407 0.541016C2.93726 0.541016 3.22199 0.61903 3.47824 0.775057C3.73449 0.932224 3.94803 1.1247 4.11886 1.35247L11.3366 11.5171C11.4505 11.6594 11.5359 11.816 11.5928 11.9868C11.6498 12.1577 11.6782 12.3285 11.6782 12.4993C11.6782 12.6702 11.6498 12.841 11.5928 13.0118C11.5359 13.1827 11.4505 13.3393 11.3366 13.4816L4.11886 23.6462C3.94803 23.874 3.73449 24.0665 3.47824 24.2236C3.22199 24.3797 2.93726 24.4577 2.62407 24.4577Z" fill="#FF964C"/>
</svg>
