<svg width="22" height="25" viewBox="0 0 22 25" fill="none" xmlns="http://www.w3.org/2000/svg">
<path d="M9.21135 24.4577C9.92315 24.4577 10.4282 24.1513 10.7266 23.5386C11.0262 22.927 10.9766 22.3365 10.578 21.7671L3.95822 12.4993L10.578 3.23164C10.9766 2.6622 11.0262 2.07111 10.7266 1.45839C10.4282 0.846808 9.92315 0.541016 9.21135 0.541016C8.89815 0.541016 8.61343 0.61903 8.35718 0.775057C8.10093 0.932224 7.88739 1.1247 7.71655 1.35247L0.498847 11.5171C0.384958 11.6594 0.299542 11.816 0.242598 11.9868C0.185653 12.1577 0.157179 12.3285 0.157179 12.4993C0.157179 12.6702 0.185653 12.8336 0.242598 12.9896C0.299542 13.1468 0.384958 13.3108 0.498847 13.4816L7.71655 23.6462C7.88739 23.874 8.10093 24.0665 8.35718 24.2236C8.61343 24.3797 8.89815 24.4577 9.21135 24.4577ZM19.3759 24.4577C20.0877 24.4577 20.5928 24.1513 20.8912 23.5386C21.1907 22.927 21.1412 22.3365 20.7426 21.7671L14.1228 12.4993L20.7426 3.23164C21.1412 2.6622 21.1907 2.07111 20.8912 1.45839C20.5928 0.846808 20.0877 0.541016 19.3759 0.541016C19.0627 0.541016 18.778 0.61903 18.5218 0.775057C18.2655 0.932224 18.052 1.1247 17.8811 1.35247L10.6634 11.5171C10.5495 11.6594 10.4641 11.816 10.4072 11.9868C10.3502 12.1577 10.3218 12.3285 10.3218 12.4993C10.3218 12.6702 10.3502 12.841 10.4072 13.0118C10.4641 13.1827 10.5495 13.3393 10.6634 13.4816L17.8811 23.6462C18.052 23.874 18.2655 24.0665 18.5218 24.2236C18.778 24.3797 19.0627 24.4577 19.3759 24.4577Z" fill="#FF964C"/>
</svg>
