<svg width="332" height="332" viewBox="0 0 332 332" fill="none" xmlns="http://www.w3.org/2000/svg">
<path d="M315 166C315 248.29 248.29 315 166 315C83.7096 315 17 248.29 17 166C17 83.7096 83.7096 17 166 17C248.29 17 315 83.7096 315 166Z" stroke="#373737" stroke-width="34"/>
<path d="M315 166C315 248.29 248.29 315 166 315C83.7096 315 17 248.29 17 166C17 83.7096 83.7096 17 166 17C248.29 17 315 83.7096 315 166Z" stroke="#373737" stroke-width="34"/>
<path d="M331.5 166C331.5 257.403 257.403 331.5 166 331.5C74.5969 331.5 0.5 257.403 0.5 166C0.5 74.5969 74.5969 0.5 166 0.5C257.403 0.5 331.5 74.5969 331.5 166Z" stroke="#FF964C"/>
<path d="M297.5 166C297.5 238.625 238.625 297.5 166 297.5C93.3745 297.5 34.5 238.625 34.5 166C34.5 93.3745 93.3745 34.5 166 34.5C238.625 34.5 297.5 93.3745 297.5 166Z" stroke="#FF964C"/>
<circle cx="259.251" cy="113.759" r="52.2412" fill="#5B9279"/>
</svg>
